<svg version="1.0" xmlns="http://www.w3.org/2000/svg"
 width="200.000000pt" height="200.000000pt" viewBox="0 0 200.000000 200.000000"
 preserveAspectRatio="xMidYMid meet">

<g transform="translate(12.000000,188.000000) scale(0.0900000,-0.0900000)"
fill="#FFFFFF" stroke="none">
<path d="M821 1945 c-224 -51 -378 -138 -527 -298 -89 -95 -158 -211 -200
-334 -44 -129 -58 -224 -51 -358 13 -292 149 -552 378 -725 298 -224 684 -258
1019 -90 351 177 566 568 523 953 -45 401 -311 717 -700 833 -111 33 -338 43
-442 19z m139 -70 c0 -3 -153 -311 -340 -686 -266 -530 -344 -678 -354 -670
-19 16 -93 178 -112 246 -25 91 -31 324 -9 419 36 164 107 296 224 419 42 44
102 98 135 120 110 74 254 130 380 147 34 4 64 8 69 9 4 0 7 -1 7 -4z m255
-25 c318 -73 583 -347 649 -672 32 -155 16 -354 -40 -495 -29 -75 -82 -173
-92 -173 -7 0 -683 1350 -683 1362 1 9 71 -1 166 -22z m-65 -410 c77 -154 140
-282 140 -285 0 -3 -128 -5 -285 -5 -157 0 -285 2 -285 5 0 10 280 565 285
565 3 0 68 -126 145 -280z m-44 -375 c44 -18 102 -72 127 -119 31 -58 30 -174
0 -232 -65 -123 -223 -176 -343 -114 -47 24 -105 86 -125 132 -19 47 -20 148
-1 192 18 42 80 113 117 132 63 32 158 36 225 9z m-426 -270 l0 -275 -135 0
c-83 0 -135 4 -135 10 0 10 262 540 267 540 2 0 3 -124 3 -275z m796 -9 c76
-150 122 -252 116 -258 -5 -5 -67 -7 -138 -6 l-129 3 -2 275 c-2 250 -1 273
13 255 8 -11 72 -132 140 -269z m184 -365 c0 -5 -24 -31 -53 -59 -154 -149
-340 -229 -557 -239 -245 -11 -447 59 -633 220 -111 96 -169 87 583 87 369 0
660 -4 660 -9z"/>
</g>
</svg>